PathFileType	4	(X/Y/Z)	 s05c0001.trc
DataRate	CameraRate	NumFrames	NumMarkers	Units	OrigDataRate	OrigDataStartFrame	OrigNumFrames
200	200	6	49	mm	200	1501	2000
Frame#	Time	racr			lacr			c7			jug			rlel			rdr			llel			ldr			s2			lic			ric			lasi			rasi			rpsi			lpsi			rgt			lgt			rth1			rth2			rth3			rth4			rlfc			rmfc			rsh1			rsh2			rsh3			rsh4			rlmal			rmmal			rcal			rtoe			rmt5			rmt1			lth1			lth2			lth4			lth3			llfc			lmfc			lsh1			lsh2			lsh3			lsh4			llmal			lmmal			lcal			ltoe			lmt1			lmt5			
		X1	Y1	Z1	X2	Y2	Z2	X3	Y3	Z3	X4	Y4	Z4	X5	Y5	Z5	X6	Y6	Z6	X7	Y7	Z7	X8	Y8	Z8	X9	Y9	Z9	X10	Y10	Z10	X11	Y11	Z11	X12	Y12	Z12	X13	Y13	Z13	X14	Y14	Z14	X15	Y15	Z15	X16	Y16	Z16	X17	Y17	Z17	X18	Y18	Z18	X19	Y19	Z19	X20	Y20	Z20	X21	Y21	Z21	X22	Y22	Z22	X23	Y23	Z23	X24	Y24	Z24	X25	Y25	Z25	X26	Y26	Z26	X27	Y27	Z27	X28	Y28	Z28	X29	Y29	Z29	X30	Y30	Z30	X31	Y31	Z31	X32	Y32	Z32	X33	Y33	Z33	X34	Y34	Z34	X35	Y35	Z35	X36	Y36	Z36	X37	Y37	Z37	X38	Y38	Z38	X39	Y39	Z39	X40	Y40	Z40	X41	Y41	Z41	X42	Y42	Z42	X43	Y43	Z43	X44	Y44	Z44	X45	Y45	Z45	X46	Y46	Z46	X47	Y47	Z47	X48	Y48	Z48	X49	Y49	Z49	
1501	7.5050	264.871596	1528.906781	349.997256	253.002219	1536.506154	2.859660	198.048997	1571.457066	172.529168	342.148518	1485.294082	171.435469	234.780340	1282.459052	535.285025	306.412055	1138.003135	743.446646	199.907906	1294.507379	-194.289958	233.358704	1159.547744	-431.687459	173.752393	1035.543527	180.411561	315.307707	1095.903035	30.740349	317.945806	1076.583109	316.443315	368.390463	1029.834106	62.714929	374.713111	1020.802909	284.147457	196.963283	1068.133793	223.610094	194.521667	1072.205273	134.250636	269.165895	923.478134	334.310140	241.600700	954.033453	10.215167	272.903404	825.244464	350.595208	285.194305	736.363715	349.723023	251.148047	656.108826	337.798434	321.728481	732.719076	341.084137	254.419641	507.695045	312.263242	247.001227	506.849962	211.192507	201.445839	410.139048	339.889191	217.095036	322.631674	330.860043	189.375544	242.122855	323.657930	249.359308	323.322905	308.179325	187.075000	109.590582	305.770394	212.857069	124.573399	227.889153	136.842510	62.399129	249.259992	424.681725	81.047192	309.470552	317.313869	44.859513	355.997323	350.555509	47.207224	242.560902	259.264256	822.273410	-11.131277	281.819369	739.493357	-5.076398	317.789322	739.444178	7.191156	256.856303	652.627525	5.999874	245.113358	517.029004	38.720821	238.056739	509.230013	138.726947	194.442364	400.071182	12.722490	209.795429	314.056448	22.756340	178.601116	231.014328	27.114291	242.082696	314.012340	43.284761	183.165446	108.800381	41.798058	211.759988	127.575768	115.090268	136.948387	57.379971	94.044549	425.028055	79.413972	39.347726	351.259146	48.213598	106.010661	312.830357	38.245224	-5.449165	
1502	7.5100	264.847264	1528.907335	350.009369	253.001290	1536.520728	2.873640	198.094687	1571.476760	172.476111	342.135941	1485.309643	171.455046	234.751786	1282.500573	535.299146	306.411347	1137.997353	743.448721	199.905116	1294.517149	-194.276275	233.377429	1159.539371	-431.684072	173.747194	1035.547185	180.415792	315.293229	1095.907126	30.739275	317.950114	1076.590935	316.449104	368.388367	1029.828671	62.713619	374.693489	1020.793200	284.139432	196.925355	1068.141765	223.630574	194.493578	1072.209962	134.254490	269.147678	923.467678	334.301451	241.576391	954.030640	10.197411	272.884765	825.234257	350.566129	285.187827	736.363678	349.699407	251.129497	656.111566	337.799753	321.722975	732.724580	341.080329	254.431076	507.686434	312.254719	247.004328	506.846269	211.194176	201.429339	410.158652	339.899047	217.078742	322.637204	330.869384	189.378504	242.139217	323.663362	249.366997	323.301102	308.161678	187.076899	109.592595	305.773002	212.839275	124.556583	227.877322	136.833978	62.392791	249.244989	424.684407	81.045745	309.473495	317.311761	44.844847	356.001898	350.555035	47.216456	242.566984	259.261092	822.278576	-11.128653	281.800457	739.498986	-5.079446	317.766657	739.446199	7.183903	256.830614	652.609842	6.004281	245.114078	517.030328	38.698980	238.052816	509.246406	138.733798	194.434191	400.068610	12.724186	209.794015	314.046705	22.781918	178.592881	231.012997	27.114405	242.076248	314.025619	43.286961	183.175625	108.801325	41.795903	211.771349	127.568109	115.078611	136.944889	57.375394	94.044537	425.034193	79.420939	39.354304	351.247141	48.242506	106.028333	312.832198	38.241723	-5.446554	
1503	7.5150	264.851439	1528.903458	349.993529	253.020544	1536.535588	2.878826	198.048989	1571.457052	172.529163	342.137327	1485.311423	171.461614	234.760834	1282.455098	535.293094	306.417239	1137.997237	743.456923	199.904247	1294.514359	-194.274466	233.397230	1159.541981	-431.666288	173.710896	1035.534726	180.417223	315.280042	1095.907434	30.739453	317.915792	1076.588704	316.453132	368.350659	1029.832614	62.698578	374.665657	1020.803600	284.150105	196.904737	1068.127873	223.626800	194.478112	1072.208745	134.246847	269.147587	923.465723	334.296018	241.562338	954.041220	10.205009	272.876489	825.234180	350.564374	285.187805	736.376790	349.697022	251.139415	656.108990	337.790990	321.722971	732.724581	341.080330	254.410121	507.678282	312.260881	247.004328	506.846270	211.194175	201.434258	410.153797	339.891964	217.083805	322.633078	330.861741	189.370028	242.135735	323.656710	249.355491	323.291765	308.159262	187.082356	109.595698	305.765738	212.856394	124.576465	227.887325	136.849776	62.397696	249.253872	424.691247	81.044929	309.467685	317.291150	44.848465	355.994310	350.569332	47.217621	242.572098	259.239303	822.278020	-11.130039	281.787877	739.513770	-5.095217	317.755749	739.441013	7.187810	256.835535	652.603816	5.989949	245.098006	517.040327	38.697507	238.040899	509.235564	138.721872	194.431164	400.060651	12.733267	209.783323	314.049787	22.763002	178.598091	231.009950	27.117008	242.075282	314.010734	43.287768	183.176716	108.804028	41.787519	211.771951	127.566726	115.077969	136.952762	57.375048	94.041508	425.036710	79.421972	39.350736	351.243306	48.228752	106.027027	312.840240	38.242720	-5.447872	
1504	7.5200	264.837966	1528.894420	350.019144	253.014604	1536.542150	2.868504	198.053533	1571.457351	172.501056	342.129562	1485.324019	171.475990	234.751524	1282.461480	535.323025	306.415251	1137.985718	743.469444	199.904819	1294.507536	-194.249943	233.407862	1159.537844	-431.639653	173.699918	1035.535595	180.415430	315.236714	1095.905334	30.728806	317.914024	1076.573175	316.441989	368.333700	1029.834386	62.693255	374.661656	1020.801990	284.134009	196.896551	1068.126680	223.613453	194.450764	1072.187974	134.255249	269.126073	923.462800	334.293598	241.544254	954.042566	10.195555	272.867811	825.244238	350.546190	285.187751	736.366181	349.684624	251.121338	656.103737	337.774590	321.702614	732.711757	341.064008	254.418771	507.691907	312.256738	246.968439	506.848179	211.184498	201.419718	410.133676	339.896420	217.074543	322.631235	330.859097	189.382398	242.131724	323.667054	249.340793	323.284386	308.158817	187.083486	109.594151	305.766195	212.857638	124.568240	227.881847	136.832417	62.393790	249.241594	424.677205	81.054919	309.482214	317.295367	44.858601	355.993786	350.569331	47.217618	242.572099	259.205766	822.279098	-11.127933	281.771439	739.513894	-5.097973	317.736654	739.428848	7.165832	256.808864	652.603925	5.977422	245.091425	517.034132	38.692661	238.041398	509.232132	138.715991	194.416535	400.061215	12.724225	209.770670	314.048886	22.763197	178.577033	230.999249	27.108634	242.059707	314.006100	43.279571	183.174011	108.787825	41.795290	211.751024	127.579084	115.078170	136.948269	57.386001	94.053743	425.032204	79.420763	39.356490	351.220329	48.218790	106.025930	312.827752	38.246703	-5.448004	
1505	7.5250	264.848593	1528.895745	350.035844	253.012348	1536.543246	2.880824	198.042840	1571.471501	172.518806	342.121016	1485.304734	171.480602	234.744869	1282.466103	535.325360	306.436236	1137.961302	743.466711	199.904878	1294.507740	-194.250260	233.421241	1159.542645	-431.645696	173.662152	1035.526069	180.420580	315.223871	1095.910060	30.734629	317.874801	1076.576978	316.440252	368.330374	1029.842274	62.699450	374.658049	1020.789897	284.130973	196.886500	1068.119754	223.631193	194.414922	1072.177417	134.252185	269.110239	923.462724	334.301398	241.523284	954.048156	10.193197	272.837298	825.250525	350.540357	285.165345	736.362800	349.698782	251.118069	656.098627	337.778038	321.702431	732.712987	341.068324	254.397764	507.680028	312.248852	246.954500	506.844590	211.186125	201.431020	410.152850	339.890590	217.068795	322.628692	330.859844	189.359578	242.112330	323.666604	249.338347	323.299392	308.169620	187.087506	109.595370	305.754303	212.853033	124.563055	227.891780	136.829682	62.403969	249.245288	424.682985	81.045086	309.466471	317.299350	44.848517	356.009271	350.568684	47.218998	242.570590	259.204452	822.275481	-11.121525	281.750218	739.517172	-5.110559	317.709283	739.426667	7.167452	256.797741	652.611238	5.978099	245.072233	517.026885	38.688766	238.024214	509.235784	138.701428	194.414201	400.070634	12.711447	209.763932	314.042766	22.769013	178.581332	230.995876	27.104165	242.059052	314.007265	43.273308	183.174205	108.795672	41.794159	211.758434	127.566041	115.078719	136.941132	57.373791	94.048132	425.032444	79.420109	39.357354	351.222119	48.213034	106.021510	312.841722	38.233656	-5.434849	
1506	7.5300	264.844648	1528.884838	350.031536	253.036058	1536.554665	2.894925	198.030515	1571.461461	172.562184	342.131556	1485.307797	171.494534	234.746686	1282.446182	535.331898	306.440215	1137.962150	743.476561	199.905574	1294.512573	-194.246278	233.432277	1159.542241	-431.628240	173.646594	1035.523211	180.427943	315.194071	1095.917545	30.733669	317.880429	1076.561556	316.438291	368.312432	1029.830108	62.695435	374.654099	1020.794889	284.117647	196.857431	1068.123798	223.637646	194.406828	1072.181055	134.265088	269.115556	923.452700	334.300751	241.504110	954.038997	10.198171	272.842327	825.241043	350.540934	285.167985	736.377203	349.676609	251.120567	656.105247	337.767552	321.699839	732.730514	341.063688	254.405673	507.690301	312.244845	246.942079	506.844522	211.180446	201.419893	410.140486	339.892506	217.064933	322.622682	330.858362	189.368125	242.082496	323.638934	249.339350	323.291207	308.164629	187.087800	109.592679	305.757279	212.853624	124.553084	227.890375	136.842576	62.397412	249.260678	424.674139	81.047441	309.468398	317.306828	44.863288	355.998450	350.572081	47.232053	242.582556	259.181469	822.289938	-11.124754	281.741154	739.524215	-5.110448	317.698473	739.442070	7.161199	256.777738	652.607659	5.983299	245.068894	517.026591	38.699306	238.043014	509.232627	138.697776	194.412889	400.052287	12.705305	209.763412	314.050255	22.752486	178.583694	231.001388	27.116191	242.055934	314.021504	43.281326	183.175625	108.793934	41.800128	211.768306	127.562229	115.068007	136.942431	57.375955	94.047054	425.028522	79.436665	39.352323	351.252775	48.235598	106.014466	312.838881	38.234785	-5.428928	
